<svg xmlns="http://www.w3.org/2000/svg" xmlns:xlink="http://www.w3.org/1999/xlink" viewBox="0 0 48 48"><g><defs><linearGradient id="idss853272659_1g-601662045" x1="0.49751243781094523" x2="0.5024875621890548" y1="0" y2="1"><stop offset="0" stop-color="rgb(218,233,243)" stop-opacity="1"></stop><stop offset="1" stop-color="rgb(145,172,190)" stop-opacity="1"></stop></linearGradient></defs><path d="M 36 0 L 12 0 C 11.172 0 10.5 0.672 10.5 1.5 L 10.5 6 C 10.5 6.828 11.172 7.5 12 7.5 L 36 7.5 C 36.829 7.5 37.5 6.828 37.5 6 L 37.5 1.5 C 37.5 0.672 36.829 0 36 0 Z" fill="url(#idss853272659_1g-601662045)"></path></g><g><defs><linearGradient id="idss853272659_2g-601662045" x1="0.49751243781094523" x2="0.5024875621890548" y1="0" y2="1"><stop offset="0" stop-color="rgb(218,233,243)" stop-opacity="1"></stop><stop offset="1" stop-color="rgb(145,172,190)" stop-opacity="1"></stop></linearGradient></defs><path d="M 40.305 38.755 L 31.5 25.059 L 31.5 10.5 L 28.5 10.5 L 28.5 25.5 C 28.5 25.788 28.583 26.07 28.739 26.311 L 33.038 33 L 14.963 33 L 19.262 26.311 C 19.417 26.07 19.5 25.788 19.5 25.5 L 19.5 10.5 L 16.5 10.5 L 16.5 25.059 L 7.695 38.755 C 7.112 39.662 6.785 40.709 6.746 41.785 C 6.708 42.862 6.96 43.93 7.476 44.875 C 7.992 45.821 8.754 46.61 9.681 47.16 C 10.607 47.71 11.665 48 12.743 48 L 35.258 48 C 36.335 48 37.393 47.71 38.32 47.16 C 39.246 46.61 40.008 45.821 40.524 44.875 C 41.041 43.93 41.293 42.862 41.254 41.785 C 41.216 40.709 40.888 39.662 40.305 38.755 Z" fill="url(#idss853272659_2g-601662045)"></path></g></svg>